<svg width="137" height="61" viewBox="0 0 137 61" fill="none" xmlns="http://www.w3.org/2000/svg">
<path fill-rule="evenodd" clip-rule="evenodd" d="M29.8909 60.3907C46.3992 60.3907 59.7818 47.0081 59.7818 30.4998C59.7818 13.9915 46.3992 0.608887 29.8909 0.608887C13.3826 0.608887 0 13.9915 0 30.4998C0 47.0081 13.3826 60.3907 29.8909 60.3907ZM35.6653 45.6717C45.3692 45.6717 51.6297 38.879 51.6297 30.4998C51.6297 22.1206 45.3692 15.3279 35.6653 15.3279C25.9614 15.3279 19.7008 22.1206 19.7008 30.4998C19.7008 38.879 25.9614 45.6717 35.6653 45.6717Z" fill="url(#paint0_linear_87_2192)"/>
<path d="M82.0822 21.3492C84.1365 21.3492 85.7996 22.0218 87.0713 23.3669C88.343 24.6875 88.9789 26.485 88.9789 28.7595V40.1683H85.7873V28.8695C85.7873 27.4511 85.4205 26.3505 84.6868 25.5679C83.9531 24.7853 82.9749 24.394 81.7521 24.394C80.3825 24.394 79.282 24.8587 78.4505 25.788C77.6434 26.6929 77.2399 28.0869 77.2399 29.97V40.1683H74.0484V28.8695C74.0484 27.4511 73.6937 26.3505 72.9845 25.5679C72.2997 24.7853 71.3582 24.394 70.1598 24.394C68.8147 24.394 67.6898 24.8587 66.7849 25.788C65.9045 26.7174 65.4642 28.1114 65.4642 29.97V40.1683H62.2727V21.8261H65.4642V24.284C66.7115 22.3275 68.5335 21.3492 70.9302 21.3492C73.4003 21.3492 75.1978 22.3886 76.3228 24.4674C77.5945 22.3886 79.5143 21.3492 82.0822 21.3492Z" fill="black"/>
<path d="M99.9707 21.3492C102.123 21.3492 103.847 22.034 105.143 23.4036C106.439 24.7486 107.087 26.5829 107.087 28.9062V40.1683H103.896V29.0896C103.896 27.5978 103.492 26.4484 102.685 25.6413C101.878 24.8098 100.766 24.394 99.3471 24.394C97.7574 24.394 96.4735 24.8954 95.4952 25.8981C94.517 26.8763 94.0278 28.3926 94.0278 30.4469V40.1683H90.8363V21.8261H94.0278V24.4674C95.324 22.3886 97.305 21.3492 99.9707 21.3492Z" fill="black"/>
<path d="M110.589 18.4879C109.978 18.4879 109.464 18.28 109.048 17.8642C108.633 17.4485 108.425 16.9471 108.425 16.3602C108.425 15.7732 108.633 15.2719 109.048 14.8561C109.464 14.4159 109.978 14.1958 110.589 14.1958C111.176 14.1958 111.677 14.4159 112.093 14.8561C112.509 15.2719 112.717 15.7732 112.717 16.3602C112.717 16.9471 112.509 17.4485 112.093 17.8642C111.677 18.28 111.176 18.4879 110.589 18.4879ZM108.975 40.1683V21.8261H112.167V40.1683H108.975Z" fill="black"/>
<path d="M129.655 21.8261H132.846V40.1683H129.655V37.0134C128.065 39.4346 125.754 40.6452 122.722 40.6452C120.154 40.6452 117.965 39.7158 116.155 37.8572C114.345 35.974 113.44 33.6874 113.44 30.9972C113.44 28.307 114.345 26.0326 116.155 24.1739C117.965 22.2908 120.154 21.3492 122.722 21.3492C125.754 21.3492 128.065 22.5598 129.655 24.981V21.8261ZM123.125 37.5637C124.984 37.5637 126.537 36.9401 127.784 35.6928C129.031 34.4211 129.655 32.8559 129.655 30.9972C129.655 29.1385 129.031 27.5856 127.784 26.3383C126.537 25.0666 124.984 24.4307 123.125 24.4307C121.291 24.4307 119.75 25.0666 118.503 26.3383C117.256 27.5856 116.632 29.1385 116.632 30.9972C116.632 32.8559 117.256 34.4211 118.503 35.6928C119.75 36.9401 121.291 37.5637 123.125 37.5637Z" fill="black"/>
<defs>
<linearGradient id="paint0_linear_87_2192" x1="3.07646e-07" y1="29.7774" x2="59.7818" y2="29.594" gradientUnits="userSpaceOnUse">
<stop stop-color="#6B78FF"/>
<stop offset="1" stop-color="#6FAFFB"/>
</linearGradient>
</defs>
</svg>
